<svg xmlns="http://www.w3.org/2000/svg" width="20" height="21">
    <path fill="none" stroke="#D9D9D9" stroke-width="2" d="M7.263 11.057A3.2 3.2 0 0 0 7.26 8.93m4.95-2.758a3.22 3.22 0 0 0 2.557 1.263 3.225 3.225 0 0 0 3.224-3.218A3.223 3.223 0 0 0 14.767 1a3.223 3.223 0 0 0-3.224 3.217c0 .374.064.733.184 1.065L6.78 8.041a3.21 3.21 0 0 0-2.557-1.264A3.226 3.226 0 0 0 .999 9.995a3.227 3.227 0 0 0 5.789 1.951l4.95 2.763a3.212 3.212 0 0 0-.187 1.072 3.223 3.223 0 1 0 6.448 0 3.227 3.227 0 0 0-5.782-1.962"/>
</svg>
