<svg xmlns="http://www.w3.org/2000/svg" width="23.5" height="21.5"><path stroke="#000" fill="none" d="M22.499 14.499l-.01-3.104c.047-.371-.082-.619-.201-.761-.143-.171-.268-.135-.789-.135h-19l-.078-7.264a.254.254 0 0 1 .134-.141l1.309-.366c-.014.151-.009.307.025.458.143.659.507.957.783 1.089.182.082.378.126.579.126.325-.009.645-.097.937-.253 1.128-.601 1.659-1.484 1.453-2.436-.096-.444-.253-.927-.679-1.127-.42-.2-.87-.015-1.214.17-.253.132-.751.391-1.176.772l-2.309.634a.244.244 0 0 0-.062.025c-.439.195-.736.615-.736 1.049l.034 7.264c-.31.039-.608-.055-.78.15-.124.151-.258.405-.21.79l-.01 3.06c0 .986 1.905 3.507 3 4v1h-1v1h2v-2c.058 0-.062 0 0 0h14c.062 0-.062.005 0 0v2h2v-1h-1v-1c1.09-.493 3-3.019 3-4z"/></svg>