<svg width="24" height="24" viewBox="0 0 24 24" xmlns="http://www.w3.org/2000/svg">
	<title>bath</title>
	<g stroke="#1A1A1A" fill="none" fill-rule="evenodd">
		<path d="M12.553 6.5c-4.51 0-6.69.888-6.76 2.478V9a.5.5 0 0 0 .5.5h12.445a.5.5 0 0 0 .5-.5c0-1.605-2.146-2.5-6.685-2.5zM9.5 12.5h1v1h-1zM9.5 14.5h1v1h-1zM9.5 16.5h1v1h-1zM9.5 18.5h1v1h-1zM6.5 12.5h1v1h-1zM6.5 14.5h1v1h-1zM6.5 16.5h1v1h-1z"/>
		<g>
			<path d="M12.5 12.5h1v1h-1zM12.5 14.5h1v1h-1zM12.5 16.5h1v1h-1zM12.5 18.5h1v1h-1zM12.5 20.5h1v1h-1z"/>
		</g>
		<g>
			<path d="M15.5 12.5h1v1h-1zM15.5 14.5h1v1h-1zM15.5 16.5h1v1h-1zM15.5 18.5h1v1h-1z"/>
		</g>
		<g>
			<path d="M18.5 12.5h1v1h-1zM18.5 14.5h1v1h-1zM18.5 16.5h1v1h-1z"/>
		</g>
		<path d="M12.5 5.5v-2" stroke-linecap="square"/>
	</g>
</svg>