<svg width="24" height="24" viewBox="0 0 24 24" xmlns="http://www.w3.org/2000/svg">
	<title>car</title>
	<g stroke="#1A1A1A" fill="none" fill-rule="evenodd">
		<circle cx="6" cy="16" r="2"/><circle cx="18" cy="16" r="2"/><path d="M15.328 16.025H8.476M3.91 16.024H2.72a1 1 0 0 1-.97-.76l-.693-2.79a1 1 0 0 1 .183-.858l2.51-3.203a1 1 0 0 1 .787-.383h9.08a1 1 0 0 1 .714.3l2.395 2.44a1 1 0 0 0 .54.286l4.7.83a1 1 0 0 1 .8 1.218l-.517 2.153a1 1 0 0 1-.973.767h-.29" stroke-linecap="square"/>
		<path d="M17.094 11.263l-.97.214a1 1 0 0 1-.216.023H4.5" stroke-linecap="round"/>
	</g>
</svg>