<svg xmlns="http://www.w3.org/2000/svg" width="29.5" height="15.5">
  <path stroke="#000" fill="none" d="M27.115 10.638c-.14.92-.703 1.86-1.616 1.86H23.64c-.3 1.155-1.32 2.012-2.54 2.012-1.222 0-2.242-.857-2.54-2.01H9.823c-.3 1.153-1.32 2.01-2.54 2.01s-2.242-.857-2.54-2.01H2.498c-.914 0-1.313-.94-1.453-1.862l-.53-3.47a1.918 1.918 0 0 1 .3-1.358L3.79 1.378A1.94 1.94 0 0 1 5.4.51h8.17c.593 0 1.17.215 1.622.606L20.057 5.3l5.823.646c.505.055.953.314 1.262.726.31.412.437.923.36 1.438l-.387 2.528z"/>
  <ellipse cx="7.268" cy="12.102" rx="2.398" ry="2.417" fill="none" stroke="#000" stroke-width="1.018"/>
  <ellipse ry="2.417" rx="2.398" cy="12.102" cx="21.114" fill="none" stroke="#000" stroke-width="1.018"/>
  <path fill="none" stroke="#000" stroke-width="1.018" d="M4.543 5.615h10.284v.073H4.543z"/>
</svg>