<svg xmlns="http://www.w3.org/2000/svg" width="22.5" height="14.5"><path stroke="#000" fill="none" d="M21.499 6.389c0-1.394-1.055-3.628-3-3.89-.081-.011.077-.009 0 0 .072-.961-.312-.97-.315-1.063a.968.968 0 0 0-.961-.937H1.453A.952.952 0 0 0 .659.93a.98.98 0 0 0-.156.623c-.021.92-.152 7.172 3.196 11.134h-2.4v.812h16.2v-.812h-2.4c.195-.233.122-.783.295-1.028 3.109-.328 6.105-3.471 6.105-5.27zm-3-2.89c.063.024-.068-.009 0 0 1.482.208 2 2.248 2 3-.017 1.035-2.411 3.747-4 4 .627-1.47 1.792-5.707 2-7z"/></svg>