<?xml version="1.0" encoding="UTF-8" standalone="no"?>
<svg
   xmlns:dc="http://purl.org/dc/elements/1.1/"
   xmlns:cc="http://creativecommons.org/ns#"
   xmlns:rdf="http://www.w3.org/1999/02/22-rdf-syntax-ns#"
   xmlns:svg="http://www.w3.org/2000/svg"
   xmlns="http://www.w3.org/2000/svg"
   xmlns:sodipodi="http://sodipodi.sourceforge.net/DTD/sodipodi-0.dtd"
   xmlns:inkscape="http://www.inkscape.org/namespaces/inkscape"
   width="24.5"
   height="19.5"
   version="1.1"
   id="svg12"
   sodipodi:docname="duck2.svg"
   inkscape:version="0.92.1 r15371">
  <metadata
     id="metadata18">
    <rdf:RDF>
      <cc:Work
         rdf:about="">
        <dc:format>image/svg+xml</dc:format>
        <dc:type
           rdf:resource="http://purl.org/dc/dcmitype/StillImage" />
        <dc:title></dc:title>
      </cc:Work>
    </rdf:RDF>
  </metadata>
  <defs
     id="defs16" />
  <sodipodi:namedview
     pagecolor="#ffffff"
     bordercolor="#666666"
     borderopacity="1"
     objecttolerance="10"
     gridtolerance="10"
     guidetolerance="10"
     inkscape:pageopacity="0"
     inkscape:pageshadow="2"
     inkscape:window-width="1366"
     inkscape:window-height="705"
     id="namedview14"
     showgrid="false"
     inkscape:zoom="26.769231"
     inkscape:cx="5.9181034"
     inkscape:cy="9.75"
     inkscape:window-x="-8"
     inkscape:window-y="-8"
     inkscape:window-maximized="1"
     inkscape:current-layer="svg12" />
  <path
     stroke="#2196F3"
     fill="none"
     d="M21.891 15.971c-1.199 1.654-3.025 2.528-5.28 2.528H9.642a5.153 5.153 0 0 1-3.645-1.486c-.971-.958-1.78-1.663-1.769-3.014.009-1.253.782-3.015 1.652-3.93-.024-.023-.047-.048-.071-.073a7.77 7.77 0 0 1-.37.009c-3.055 0-4.811-1.33-4.883-1.406-.142-.151-.038-.707.035-.9a.558.558 0 0 1 .46-.355c1.508-.176 2.687-.966 3.177-1.445.238-2.911 2.492-5.4 5.506-5.4 3.169 0 5.506 2.297 5.506 5.4 0 1.074-.342 2.708-.918 3.6 2.555.126 4.949-.883 6.424-1.8.51-.317 1.304-.285 1.835 0 .527.283.918 1.003.918 1.589v2.011c0 2.386-.556 3.22-1.608 4.672z"
     id="path10"
     style="stroke:#000002;stroke-opacity:1" />
  <ellipse
     style="fill:none;fill-opacity:1;stroke:#000001;stroke-width:0.693;stroke-miterlimit:4;stroke-dasharray:none;stroke-opacity:1"
     id="path20"
     cx="7.284483"
     cy="6.257184"
     rx="0.85919476"
     ry="0.9899419" />
</svg>
