<svg xmlns="http://www.w3.org/2000/svg" width="30" height="18"><path fill-rule="evenodd" fill="#2196F3" d="M25.976 13.263c-3.013 3.154-6.97 4.73-10.927 4.73-3.958 0-7.915-1.577-10.927-4.73L-.003 8.945l4.025-4.212c6.025-6.307 15.828-6.307 21.854 0L30 9.05l-4.024 4.213zm-.817-7.78c-5.63-5.894-14.79-5.894-20.42 0L1.43 8.945l3.408 3.567c5.631 5.894 14.791 5.894 20.421 0l3.308-3.462-3.408-3.567zM14.984 15.878c-3.632 0-6.588-3.093-6.588-6.896s2.956-6.897 6.588-6.897c3.634 0 6.589 3.094 6.589 6.897 0 3.803-2.956 6.896-6.589 6.896zm0-12.732c-3.073 0-5.574 2.618-5.574 5.836 0 3.217 2.501 5.835 5.574 5.835 3.075 0 5.575-2.618 5.575-5.835 0-3.218-2.5-5.836-5.575-5.836zm-.506 2.652c-1.398 0-2.534 1.19-2.534 2.653a.52.52 0 0 1-.506.531.52.52 0 0 1-.508-.531c0-2.047 1.592-3.714 3.548-3.714.28 0 .506.238.506.531 0 .293-.227.53-.506.53z"/></svg>