<svg xmlns="http://www.w3.org/2000/svg" width="15" height="23"><path fill-rule="evenodd" d="M13.351 22.999H9.728c-.908 0-1.648-.789-1.648-1.759v-7.937c0-.279.212-.506.475-.506h.579v-.878c0-.28.212-.506.474-.506h3.863c.262 0 .474.226.474.506v.878h.58c.262 0 .474.227.474.506v7.937c0 .97-.739 1.759-1.648 1.759zm-.355-10.574h-2.913v.373h2.913v-.373zm1.054 1.385H9.029v7.43c0 .412.313.747.699.747h3.623c.386 0 .699-.335.699-.747v-7.43zm-8.78 9.189H1.648c-.909 0-1.649-.789-1.649-1.759V14.5c0-.28.213-.506.475-.506h.579V6.538c0-.28.213-.506.475-.506h.062V2.87a.53.53 0 0 1 .065-.257c.013-.025.341-.618.75-1.222C3.067.416 3.533-.001 3.967-.001c.345 0 .963.17 1.236 1.306.124.518.125 1.029.125 1.05v3.677h.062c.262 0 .475.226.475.506v7.456h.579c.262 0 .474.226.475.506v6.74c0 .97-.74 1.759-1.649 1.759zM4.38 2.355c-.002-.514-.155-1.284-.386-1.34-.261.137-.915 1.033-1.456 1.994v3.023H4.38V2.355zm.536 4.689H2.002v6.95h2.914v-6.95zM5.969 21.24v-6.234H.948v6.234c0 .412.314.747.7.747H5.27c.385 0 .7-.335.7-.747h-.001z"/></svg>