<svg 
 xmlns="http://www.w3.org/2000/svg"
 xmlns:xlink="http://www.w3.org/1999/xlink"
 width="19px" height="18px">
<path fill-rule="evenodd"  fill="rgb(128, 128, 128)"
 d="M17.843,17.082 L13.468,12.707 C14.642,11.358 15.352,9.598 15.352,7.674 C15.352,3.440 11.907,-0.000 7.675,-0.000 C3.440,-0.000 -0.001,3.444 -0.001,7.674 C-0.001,11.905 3.444,15.349 7.675,15.349 C9.599,15.349 11.360,14.639 12.709,13.465 L17.085,17.840 C17.188,17.944 17.328,18.000 17.463,18.000 C17.599,18.000 17.739,17.948 17.843,17.840 C18.050,17.632 18.050,17.289 17.843,17.082 ZM1.073,7.674 C1.073,4.034 4.035,1.077 7.672,1.077 C11.312,1.077 14.270,4.038 14.270,7.674 C14.270,11.310 11.312,14.276 7.672,14.276 C4.035,14.276 1.073,11.314 1.073,7.674 Z"/>
</svg>