<svg xmlns="http://www.w3.org/2000/svg" width="18" height="20"><path fill-rule="evenodd" fill="#FFF" d="M15.85 13.129H5.104c-.439 0-.851-.141-1.191-.376v1.629c0 .677.532 1.229 1.191 1.229h10.23c1.171 0 2.126.986 2.126 2.194 0 1.209-.955 2.194-2.126 2.194-1.171 0-2.126-.985-2.126-2.194 0-.445.128-.858.347-1.204H8.469c.219.346.348.759.348 1.204 0 1.209-.955 2.194-2.126 2.194-1.171 0-2.126-.985-2.126-2.194 0-.45.131-.866.355-1.213-1.103-.094-1.97-1.047-1.97-2.21V2.109L.293.95A.502.502 0 0 1 .037.302.475.475 0 0 1 .665.038l2.961 1.279a.41.41 0 0 0 .043.025c.005.004.008.004.012.008.012.004.021.012.028.016.008.009.017.013.025.021.004 0 .007.004.012.008l.023.025c0 .004.005.004.008.008.008.008.012.017.02.025 0 .004.005.008.008.012l.016.025.012.017.012.02c.004.004.008.013.012.021.004.004.004.012.008.016.004.013.008.021.012.029 0 .009.004.012.004.017.004.008.008.016.012.029l.004.016a.084.084 0 0 1 .008.029c0 .008.004.02.004.033v.012a.264.264 0 0 1 .004.054v9.122c0 .677.532 1.229 1.191 1.229H15.85c.655 0 1.19-.548 1.19-1.229V6.237a.49.49 0 0 1 .479-.495.49.49 0 0 1 .48.495v4.673c0 1.221-.963 2.219-2.149 2.219zm-.521 5.881c.644 0 1.167-.541 1.167-1.205s-.523-1.204-1.167-1.204c-.643 0-1.166.54-1.166 1.204 0 .664.523 1.205 1.166 1.205zm-8.638 0c.643 0 1.166-.541 1.166-1.205s-.523-1.204-1.166-1.204c-.644 0-1.167.54-1.167 1.204 0 .664.523 1.205 1.167 1.205zm4.116-9.045l-.005.004c-.012.009-.02.021-.032.029-.008.004-.012.009-.02.013-.008.008-.011.012-.019.016a.097.097 0 0 1-.021.012l-.019.013-.025.012c-.008 0-.011.004-.02.009-.003.004-.012.004-.02.008-.007.004-.016.004-.023.008-.008 0-.017.004-.024.004-.008 0-.017.004-.024.004-.009 0-.016.004-.024.004-.004 0-.012.005-.02.005-.016.003-.032.003-.048.003l-.048-.003c-.008 0-.012-.005-.02-.005s-.016-.004-.024-.004-.016-.004-.024-.004c-.004 0-.012 0-.02-.004s-.016-.004-.024-.008c-.004-.004-.012-.004-.02-.008-.008 0-.012-.005-.02-.009a.087.087 0 0 0-.02-.012c-.008-.005-.012-.009-.02-.013-.004-.004-.012-.008-.02-.012s-.012-.012-.02-.016l-.016-.013a.179.179 0 0 1-.035-.033L8.229 8.006a.506.506 0 0 1 0-.701.469.469 0 0 1 .679 0l1.079 1.113V1.564c0-.272.216-.494.48-.494s.479.222.479.494v6.854l1.083-1.117a.469.469 0 0 1 .679 0 .506.506 0 0 1 0 .701l-1.901 1.963z"/></svg>