<svg 
 xmlns="http://www.w3.org/2000/svg"
 xmlns:xlink="http://www.w3.org/1999/xlink"
 width="30px" height="27px">
<path fill-rule="evenodd"  fill="rgb(255, 255, 255)"
 d="M29.144,10.467 L27.612,10.467 L27.605,10.467 L26.928,10.467 L17.650,0.278 C17.336,-0.067 16.795,-0.095 16.445,0.215 C16.096,0.525 16.068,1.060 16.382,1.405 L24.633,10.467 L5.401,10.467 L13.624,1.405 C13.937,1.060 13.909,0.525 13.560,0.215 C13.211,-0.095 12.669,-0.067 12.356,0.278 L3.099,10.467 L2.415,10.467 L2.415,10.467 L0.854,10.467 C0.384,10.467 -0.001,10.847 -0.001,11.312 C-0.001,11.776 0.384,12.157 0.854,12.157 L1.731,12.157 L4.196,23.515 C4.588,25.465 6.334,26.881 8.351,26.881 L17.693,26.881 C18.163,26.881 18.548,26.500 18.548,26.036 C18.548,25.571 18.163,25.190 17.693,25.190 L8.351,25.190 C7.146,25.190 6.106,24.346 5.871,23.177 C5.871,23.170 5.871,23.170 5.871,23.163 L3.484,12.157 L26.565,12.157 L25.581,16.917 C25.488,17.375 25.787,17.818 26.251,17.917 C26.308,17.931 26.365,17.931 26.422,17.931 C26.821,17.931 27.177,17.656 27.256,17.255 L28.310,12.157 L29.144,12.157 C29.614,12.157 29.999,11.776 29.999,11.312 C29.999,10.847 29.614,10.467 29.144,10.467 Z"/>
</svg>