<svg 
 xmlns="http://www.w3.org/2000/svg"
 xmlns:xlink="http://www.w3.org/1999/xlink"
 width="29.5px" height="15.5px">
<path fill-rule="evenodd"  stroke="rgb(0, 0, 0)" stroke-width="1px" stroke-linecap="butt" stroke-linejoin="miter" fill="none"
 d="M27.115,10.638 C26.975,11.559 26.412,12.499 25.499,12.499 L23.642,12.499 C23.342,13.653 22.322,14.510 21.101,14.510 C19.880,14.510 18.860,13.653 18.561,12.499 L9.824,12.499 C9.524,13.653 8.504,14.510 7.283,14.510 C6.063,14.510 5.042,13.653 4.743,12.499 L4.499,12.499 L2.499,12.499 C1.586,12.499 1.187,11.560 1.047,10.638 L0.517,7.167 C0.445,6.691 0.551,6.209 0.818,5.810 L3.789,1.378 C4.153,0.835 4.756,0.511 5.400,0.511 L13.570,0.511 C14.163,0.511 14.739,0.725 15.192,1.116 L20.057,5.300 L25.880,5.946 C26.385,6.001 26.833,6.260 27.142,6.672 C27.451,7.084 27.579,7.595 27.501,8.110 L27.115,10.638 Z"/>
</svg>