<svg xmlns="http://www.w3.org/2000/svg" width="24.5" height="19.5"><path stroke="#2196F3" fill="none" d="M21.891 15.971c-1.199 1.654-3.025 2.528-5.28 2.528H9.642a5.153 5.153 0 0 1-3.645-1.486c-.971-.958-1.78-1.663-1.769-3.014.009-1.253.782-3.015 1.652-3.93-.024-.023-.047-.048-.071-.073a7.77 7.77 0 0 1-.37.009c-3.055 0-4.811-1.33-4.883-1.406-.142-.151-.038-.707.035-.9a.558.558 0 0 1 .46-.355c1.508-.176 2.687-.966 3.177-1.445.238-2.911 2.492-5.4 5.506-5.4 3.169 0 5.506 2.297 5.506 5.4 0 1.074-.342 2.708-.918 3.6 2.555.126 4.949-.883 6.424-1.8.51-.317 1.304-.285 1.835 0 .527.283.918 1.003.918 1.589v2.011c0 2.386-.556 3.22-1.608 4.672z"/></svg>