<svg xmlns="http://www.w3.org/2000/svg" width="25.5" height="15.5"><path stroke="#000" fill="none" d="M22.999 11.5c-.176 0-.343-.036-.5-.092v.591a1.5 1.5 0 0 1-2.058 1.391 1.494 1.494 0 0 1-1.442 1.109 1.5 1.5 0 0 1-1.5-1.5V9.408a1.483 1.483 0 0 1-.5.092h-9c-.176 0-.343-.036-.5-.092v3.591a1.5 1.5 0 1 1-3 0v-.592a1.483 1.483 0 0 1-.5.092 1.5 1.5 0 0 1-1.5-1.5v-.591a1.503 1.503 0 0 1-.5.091 1.5 1.5 0 0 1-1.5-1.5v-4a1.5 1.5 0 0 1 1.5-1.5c.177 0 .343.036.5.092v-.592a1.5 1.5 0 0 1 2.058-1.39A1.497 1.497 0 0 1 7.499 2v3.591c.157-.056.324-.092.5-.092h9c.176 0 .343.036.5.092V2a1.5 1.5 0 1 1 3 0v.591c.157-.056.324-.092.5-.092A1.5 1.5 0 0 1 22.499 4v.591c.157-.056.324-.092.5-.092a1.5 1.5 0 0 1 1.5 1.5v4a1.5 1.5 0 0 1-1.5 1.501z"/></svg>